<svg id="Capa_1" data-name="Capa 1" xmlns="http://www.w3.org/2000/svg" viewBox="0 0 637.96 182.79"><defs><style>.cls-1{fill:#7d3cc9;}</style></defs><title>logo</title><path class="cls-1" d="M265.17,46.64,259,52.5q-6.27-6.63-14.1-6.63a15.45,15.45,0,0,0-15.68,15.67,16.47,16.47,0,0,0,2,8.2,14.39,14.39,0,0,0,5.67,5.62,16.49,16.49,0,0,0,8.15,2,16.68,16.68,0,0,0,7-1.43,25,25,0,0,0,7-5.19L265,77a32.61,32.61,0,0,1-9.66,6.92,26.29,26.29,0,0,1-10.38,1.93q-10.75,0-17.62-6.82t-6.85-17.49a24,24,0,0,1,3.12-12.27,23.21,23.21,0,0,1,8.94-8.63,25.27,25.27,0,0,1,12.53-3.26,26.57,26.57,0,0,1,20.11,9.27Z"/><path class="cls-1" d="M294.65,37.37a22.94,22.94,0,0,1,16.84,7.09,23.59,23.59,0,0,1,7,17.29,23.29,23.29,0,0,1-6.95,17.09,24.09,24.09,0,0,1-34.14-.18,24.68,24.68,0,0,1-3.67-29.24,24.18,24.18,0,0,1,20.88-12.05Zm-.1,8.6a14.48,14.48,0,0,0-10.77,4.45,15.52,15.52,0,0,0-4.36,11.33,14.77,14.77,0,0,0,5.49,12.11,15.07,15.07,0,0,0,9.8,3.48,14.31,14.31,0,0,0,10.64-4.52,15.31,15.31,0,0,0,4.4-11.14,15.42,15.42,0,0,0-4.43-11.15A14.44,14.44,0,0,0,294.55,46Z"/><path class="cls-1" d="M326.85,38.53h8.42L355,68.9V38.53h8.78V84.68h-8.45L335.63,54.41V84.68h-8.78Z"/><path class="cls-1" d="M398.56,44.81l-6.5,5.74c-2.29-3.18-4.61-4.77-7-4.77a4.28,4.28,0,0,0-2.83.92,2.72,2.72,0,0,0-1.1,2.09,3.56,3.56,0,0,0,.79,2.2,60.39,60.39,0,0,0,6.44,5.93q5,4.2,6.09,5.3a18.38,18.38,0,0,1,3.79,5.16,12.92,12.92,0,0,1,1.12,5.38,12.34,12.34,0,0,1-3.93,9.38,14.31,14.31,0,0,1-10.24,3.7,15.26,15.26,0,0,1-8.59-2.42,19.08,19.08,0,0,1-6.26-7.59l7.38-4.45q3.33,6.12,7.67,6.12a5.64,5.64,0,0,0,3.8-1.32,3.91,3.91,0,0,0,1.54-3A5.27,5.27,0,0,0,389.59,70a33.5,33.5,0,0,0-5.13-4.8q-7.53-6.15-9.74-9.49a12.12,12.12,0,0,1-2.2-6.67,10.89,10.89,0,0,1,3.66-8.23,12.7,12.7,0,0,1,9-3.44,14.3,14.3,0,0,1,6.58,1.6A23.87,23.87,0,0,1,398.56,44.81Z"/><path class="cls-1" d="M407.44,38.53h8.81V68.37a15.49,15.49,0,0,0,.68,5.46,5.4,5.4,0,0,0,2.23,2.55,7,7,0,0,0,3.74,1,7.28,7.28,0,0,0,4-1.07,5.62,5.62,0,0,0,2.33-2.71,20.43,20.43,0,0,0,.64-6.28V38.53h8.81V66.05q0,7-.78,9.66a13.54,13.54,0,0,1-3,5.2,13.75,13.75,0,0,1-5.09,3.72,17.26,17.26,0,0,1-6.72,1.21,16.18,16.18,0,0,1-8.73-2.31A13.39,13.39,0,0,1,409,77.76q-1.6-3.47-1.6-11.71Z"/><path class="cls-1" d="M448.88,38.53h8.78V76.3h12.8v8.38H448.88Z"/><path class="cls-1" d="M472.6,38.53h25.5v8.66h-8.41V84.68h-8.91V47.19H472.6Z"/><path class="cls-1" d="M518.2,38.53h8.91l17.75,46.15h-9.13l-3.61-9.51H513.29l-3.75,9.51h-9.13Zm4.51,12.24-6.19,15.84h12.35Z"/><path class="cls-1" d="M575.87,44.81l-6.51,5.74c-2.28-3.18-4.61-4.77-7-4.77a4.26,4.26,0,0,0-2.83.92,2.69,2.69,0,0,0-1.1,2.09,3.61,3.61,0,0,0,.78,2.2,61.49,61.49,0,0,0,6.44,5.93q5,4.2,6.1,5.3a18.58,18.58,0,0,1,3.79,5.16,12.92,12.92,0,0,1,1.11,5.38,12.37,12.37,0,0,1-3.92,9.38,14.31,14.31,0,0,1-10.24,3.7,15.23,15.23,0,0,1-8.59-2.42,19,19,0,0,1-6.26-7.59l7.38-4.45q3.33,6.12,7.67,6.12a5.65,5.65,0,0,0,3.8-1.32,3.94,3.94,0,0,0,1.54-3A5.22,5.22,0,0,0,566.89,70a32.79,32.79,0,0,0-5.12-4.8q-7.54-6.15-9.74-9.49a12,12,0,0,1-2.2-6.67,10.89,10.89,0,0,1,3.66-8.23,12.7,12.7,0,0,1,9-3.44A14.33,14.33,0,0,1,569.1,39,24,24,0,0,1,575.87,44.81Z"/><path class="cls-1" d="M236.84,115.27h8.91l17.74,46.15h-9.12l-3.61-9.51H231.93l-3.76,9.51H219Zm4.51,12.24-6.19,15.84H247.5Z"/><path class="cls-1" d="M288.29,115.27H298.7q10.07,0,14.95,2.5a19.49,19.49,0,0,1,8.06,8.11,28.45,28.45,0,0,1,1.39,22.91,20.28,20.28,0,0,1-4.89,7.42,17.21,17.21,0,0,1-6.75,4.08q-3.65,1.13-12.6,1.13H288.29Zm8.72,8.47v29.11h4.08q6,0,8.74-1.38a10.48,10.48,0,0,0,4.44-4.64,17.07,17.07,0,0,0,1.72-8q0-7.35-4.11-11.4-3.69-3.65-11.89-3.65Z"/><path class="cls-1" d="M355,114.11a23,23,0,0,1,16.85,7.09,23.63,23.63,0,0,1,7,17.29A23.33,23.33,0,0,1,372,155.58a24.09,24.09,0,0,1-34.14-.18A24.25,24.25,0,0,1,355,114.11Zm-.09,8.6a14.48,14.48,0,0,0-10.77,4.45,15.53,15.53,0,0,0-4.37,11.33,14.78,14.78,0,0,0,5.5,12.11,15.07,15.07,0,0,0,9.8,3.48,14.31,14.31,0,0,0,10.64-4.52,16.27,16.27,0,0,0,0-22.29A14.44,14.44,0,0,0,354.94,122.71Z"/><path class="cls-1" d="M391.68,115.27h8.56l10.7,32.19,10.79-32.19h8.55L438,161.42h-8.5l-4.95-29.14-9.8,29.14H407l-9.72-29.14-5.06,29.14h-8.57Z"/><path class="cls-1" d="M444.39,115.27h8.72v46.15h-8.72Z"/><path class="cls-1" d="M505.41,123.38l-6.14,5.86q-6.27-6.63-14.11-6.63a15.47,15.47,0,0,0-15.67,15.67,16.47,16.47,0,0,0,2,8.2,14.26,14.26,0,0,0,5.67,5.62,16.46,16.46,0,0,0,8.15,2,16.68,16.68,0,0,0,7-1.43,25,25,0,0,0,7-5.19l6,6.21a32.73,32.73,0,0,1-9.66,6.92,26.29,26.29,0,0,1-10.38,1.93q-10.77,0-17.62-6.82t-6.85-17.49A24,24,0,0,1,463.83,126a23.29,23.29,0,0,1,8.94-8.63,25.27,25.27,0,0,1,12.53-3.26,26.57,26.57,0,0,1,20.11,9.27Z"/><path class="cls-1" d="M512.47,115.27h8.72v46.15h-8.72Z"/><path class="cls-1" d="M531.07,115.27h8.78V153h12.8v8.38H531.07Z"/><path class="cls-1" d="M558.71,115.27h8.72v46.15h-8.72Z"/><path class="cls-1" d="M599.1,114.11a22.94,22.94,0,0,1,16.84,7.09,23.6,23.6,0,0,1,7,17.29,23.3,23.3,0,0,1-7,17.09,24.08,24.08,0,0,1-34.13-.18,24.25,24.25,0,0,1,17.2-41.29Zm-.1,8.6a14.48,14.48,0,0,0-10.77,4.45,15.52,15.52,0,0,0-4.36,11.33,14.77,14.77,0,0,0,5.49,12.11,15.09,15.09,0,0,0,9.8,3.48,14.33,14.33,0,0,0,10.65-4.52,16.29,16.29,0,0,0,0-22.29A14.44,14.44,0,0,0,599,122.71Z"/><path class="cls-1" d="M114.58,11.82a8.34,8.34,0,0,0-10.6,0L18.28,87c-2.91,2.54-2.12,4.64,1.74,4.64l18.48,0a7.07,7.07,0,0,1,7,7v60.55a7,7,0,0,0,7,7H167.32a7,7,0,0,0,7-7V98.65a7,7,0,0,1,7-7h18.48c3.86,0,4.63-2.07,1.71-4.6Zm18.31,59.92c8.27.58,6.79,20.06-1.15,19.51C121.32,90.51,123.2,71.05,132.89,71.74ZM89.18,130.87c-4.08,9.63-21.87,1.54-18.08-7.41C74.33,115.82,92.28,123.55,89.18,130.87Zm4.75-24.22C87.69,115,72.32,103,78.12,95.16,83.07,88.5,98.68,100.27,93.93,106.65Zm8.75-31.59c9.93-3.28,15.58,15.43,6.36,18.48C101.16,96.15,95.13,77.56,102.68,75.06Zm26.75,53.19c-8.82,5.86-14.14,24.13-24.24,15.56-6.67-5.66-4.85-28.69,6.26-37.38s30.1-4,36.17,4C155,120.36,137.6,122.83,129.43,128.25Z"/></svg>