<svg id="Capa_1" data-name="Capa 1" xmlns="http://www.w3.org/2000/svg" viewBox="0 0 219.76 182.79"><defs><style>.cls-1{fill:#7d3cc9;}</style></defs><title>logo</title><path class="cls-1" d="M114.52,11.82a8.34,8.34,0,0,0-10.6,0L18.22,87c-2.91,2.54-2.12,4.64,1.74,4.64l18.48,0a7.07,7.07,0,0,1,7,7v60.55a7,7,0,0,0,7,7H167.26a7,7,0,0,0,7-7V98.65a7,7,0,0,1,7-7H199.8c3.86,0,4.63-2.07,1.71-4.6Zm18.31,59.92c8.27.58,6.79,20.06-1.15,19.51C121.26,90.51,123.14,71.05,132.83,71.74ZM89.12,130.87C85,140.5,67.25,132.41,71,123.46,74.27,115.82,92.22,123.55,89.12,130.87Zm4.75-24.22C87.63,115,72.26,103,78.06,95.16,83,88.5,98.62,100.27,93.87,106.65Zm8.75-31.59c9.93-3.28,15.58,15.43,6.36,18.48C101.1,96.15,95.07,77.56,102.62,75.06Zm26.75,53.19c-8.82,5.86-14.14,24.13-24.24,15.56-6.67-5.66-4.85-28.69,6.26-37.38s30.1-4,36.17,4C155,120.36,137.54,122.83,129.37,128.25Z"/></svg>