<svg id="Capa_1" data-name="Capa 1" xmlns="http://www.w3.org/2000/svg" viewBox="0 0 212.6 212.6"><defs><style>.cls-1,.cls-3{fill:none;stroke:#1d1d1b;stroke-miterlimit:10;}.cls-1{stroke-width:4px;}.cls-2{fill:#1d1d1b;}.cls-3{stroke-width:3.39px;}</style></defs><title>icono</title><circle class="cls-1" cx="106.3" cy="106.3" r="97.18"/><path class="cls-2" d="M146.76,138.8s7.89,9.76-.82,16.4-16-3.54-16-3.54L78.06,83.73l0,0H104.7Zm-17,.24a1.27,1.27,0,1,0-1.58-2c-1.48,1.18-4.86,3.71-4.86,3.71l1.52,2.09ZM124,131.43a1.27,1.27,0,1,0-1.57-2c-1.48,1.17-4.87,3.71-4.87,3.71l1.52,2.09Zm-5.77-7.55a1.26,1.26,0,1,0-1.57-1.95c-1.48,1.16-4.86,3.69-4.86,3.69l1.51,2.11Zm-5.77-7.46a1.27,1.27,0,1,0-1.57-2c-1.48,1.17-4.86,3.7-4.86,3.7l1.51,2.1S111.11,117.47,112.44,116.42Zm-5.72-7.65a1.27,1.27,0,1,0-1.58-2c-1.47,1.18-4.87,3.71-4.87,3.71l1.53,2.1ZM101,101.23a1.27,1.27,0,1,0-1.58-2c-1.47,1.17-4.86,3.7-4.86,3.7l1.52,2.1S99.62,102.28,101,101.23Zm-5.66-7.54a1.27,1.27,0,1,0-1.58-2c-1.48,1.17-4.86,3.71-4.86,3.71l1.52,2.09Z"/><polyline class="cls-3" points="78.11 83.7 104.7 83.7 104.82 83.7"/><path class="cls-3" d="M104.7,83.7l42.06,55.1s7.89,9.76-.82,16.4-16-3.54-16-3.54L78.06,83.73l-4.48-5.87L70,80.58c-2.17,1.65-5.74-3.29-3.7-4.85l12-9.14,12-9.14c2-1.56,5.87,3.19,3.69,4.84C92.18,63.67,90.42,65,90.42,65Z"/></svg>