<svg id="Capa_1" data-name="Capa 1" xmlns="http://www.w3.org/2000/svg" viewBox="0 0 212.6 212.6"><defs><style>.cls-1,.cls-2,.cls-3{fill:none;stroke:#1d1d1b;stroke-miterlimit:10;}.cls-1{stroke-width:4px;}.cls-2,.cls-3{stroke-width:5px;}.cls-3{stroke-linecap:round;}</style></defs><title>icono</title><circle class="cls-1" cx="106.3" cy="106.3" r="97.18"/><path class="cls-2" d="M64,76.05H81.57a5.68,5.68,0,0,0,5.67-5.66V52.83"/><path class="cls-2" d="M135.14,159.3h7.21a5.69,5.69,0,0,0,5.67-5.67V58.49a5.69,5.69,0,0,0-5.67-5.66H91.22A14.91,14.91,0,0,0,81.7,57L67.86,71.9A16.72,16.72,0,0,0,64,81.72v71.91a5.68,5.68,0,0,0,5.67,5.67h40.05"/><circle class="cls-2" cx="122.43" cy="135.7" r="15.13"/><path class="cls-2" d="M133,146.54s4.35,26,4.35,26c.12.77-.36,1.14-1.07.83l-12.54-5.58a3.72,3.72,0,0,0-2.59,0l-12.55,5.58c-.71.31-1.19-.06-1.06-.83,0,0,4.32-26,4.34-26"/><line class="cls-3" x1="80.19" y1="84.67" x2="131.86" y2="84.67"/><line class="cls-3" x1="80.19" y1="99.31" x2="131.86" y2="99.31"/><line class="cls-3" x1="80.19" y1="113.96" x2="131.86" y2="113.96"/><line class="cls-3" x1="80.19" y1="128.6" x2="100.47" y2="128.6"/></svg>