<svg id="Capa_1" data-name="Capa 1" xmlns="http://www.w3.org/2000/svg" viewBox="0 0 212.6 212.6"><defs><style>.cls-1{fill:none;stroke:#1d1d1b;stroke-miterlimit:10;stroke-width:4px;}</style></defs><title>icono</title><circle class="cls-1" cx="106.3" cy="106.3" r="97.18"/><path d="M160.12,65.08c-29.94-13.86-41.71,12-53.82,12s-23.88-25.9-53.82-12c-34,15.74,11.51,105.5,53.82,105.5S194.14,80.82,160.12,65.08ZM125.44,87c6.92.49,5.68,16.78-1,16.31C115.77,102.67,117.34,86.4,125.44,87ZM88.9,136.42c-3.41,8-18.29,1.28-15.12-6.2C76.49,123.83,91.49,130.29,88.9,136.42Zm4-20.26c-5.22,7-18.07-3.09-13.22-9.61C83.79,101,96.84,110.83,92.87,116.16Zm7.32-26.41c8.29-2.74,13,12.9,5.31,15.46C98.92,107.38,93.88,91.84,100.19,89.75Zm22.36,44.47c-7.38,4.9-11.82,20.17-20.26,13-5.58-4.73-4.06-24,5.23-31.25s25.17-3.38,30.23,3.38C144,127.63,129.38,129.69,122.55,134.22Z"/></svg>